<mxfile host="app.diagrams.net" modified="2022-08-22T11:00:26.097Z" agent="5.0 (Windows NT 10.0; Win64; x64) AppleWebKit/537.36 (KHTML, like Gecko) Chrome/104.0.0.0 Safari/537.36" etag="6ICIRV_bBjtNoBLQk3lL" version="20.2.5" type="github">
  <diagram id="pT1ACEBDp5Zp1uZIwRWU" name="Page-1">
    <mxGraphModel dx="1108" dy="460" grid="1" gridSize="10" guides="1" tooltips="1" connect="1" arrows="1" fold="1" page="1" pageScale="1" pageWidth="1654" pageHeight="1169" math="0" shadow="0">
      <root>
        <mxCell id="0" />
        <mxCell id="1" parent="0" />
        <mxCell id="rySYJTmvGV1bSroh9qv7-1" value="Nguồn hạ áp 5V xuống 3.3V" style="rounded=0;whiteSpace=wrap;html=1;" vertex="1" parent="1">
          <mxGeometry x="200" y="40" width="100" height="60" as="geometry" />
        </mxCell>
        <mxCell id="rySYJTmvGV1bSroh9qv7-2" value="Adapter 5V" style="rounded=0;whiteSpace=wrap;html=1;" vertex="1" parent="1">
          <mxGeometry x="40" y="40" width="90" height="60" as="geometry" />
        </mxCell>
        <mxCell id="rySYJTmvGV1bSroh9qv7-3" value="" style="endArrow=classic;html=1;rounded=0;exitX=1;exitY=0.5;exitDx=0;exitDy=0;entryX=0;entryY=0.5;entryDx=0;entryDy=0;" edge="1" parent="1" source="rySYJTmvGV1bSroh9qv7-2" target="rySYJTmvGV1bSroh9qv7-1">
          <mxGeometry width="50" height="50" relative="1" as="geometry">
            <mxPoint x="530" y="130" as="sourcePoint" />
            <mxPoint x="580" y="80" as="targetPoint" />
          </mxGeometry>
        </mxCell>
        <mxCell id="rySYJTmvGV1bSroh9qv7-4" value="ESP32" style="rounded=0;whiteSpace=wrap;html=1;direction=west;" vertex="1" parent="1">
          <mxGeometry x="200" y="160" width="100" height="60" as="geometry" />
        </mxCell>
        <mxCell id="rySYJTmvGV1bSroh9qv7-5" value="" style="endArrow=classic;html=1;rounded=0;exitX=1;exitY=0.5;exitDx=0;exitDy=0;entryX=0;entryY=0.5;entryDx=0;entryDy=0;" edge="1" parent="1" source="rySYJTmvGV1bSroh9qv7-1" target="rySYJTmvGV1bSroh9qv7-4">
          <mxGeometry relative="1" as="geometry">
            <mxPoint x="500" y="100" as="sourcePoint" />
            <mxPoint x="600" y="100" as="targetPoint" />
            <Array as="points">
              <mxPoint x="350" y="70" />
              <mxPoint x="350" y="190" />
            </Array>
          </mxGeometry>
        </mxCell>
        <mxCell id="rySYJTmvGV1bSroh9qv7-6" value="Input 3.3V" style="edgeLabel;resizable=0;html=1;align=center;verticalAlign=middle;" connectable="0" vertex="1" parent="rySYJTmvGV1bSroh9qv7-5">
          <mxGeometry relative="1" as="geometry" />
        </mxCell>
        <mxCell id="rySYJTmvGV1bSroh9qv7-7" value="DHT11" style="rounded=0;whiteSpace=wrap;html=1;" vertex="1" parent="1">
          <mxGeometry x="40" y="160" width="90" height="60" as="geometry" />
        </mxCell>
        <mxCell id="rySYJTmvGV1bSroh9qv7-9" value="" style="endArrow=classic;html=1;rounded=0;exitX=1;exitY=0.5;exitDx=0;exitDy=0;entryX=1;entryY=0.5;entryDx=0;entryDy=0;" edge="1" parent="1" source="rySYJTmvGV1bSroh9qv7-7" target="rySYJTmvGV1bSroh9qv7-4">
          <mxGeometry relative="1" as="geometry">
            <mxPoint x="200" y="100" as="sourcePoint" />
            <mxPoint x="300" y="100" as="targetPoint" />
          </mxGeometry>
        </mxCell>
        <mxCell id="rySYJTmvGV1bSroh9qv7-10" value="OneWire" style="edgeLabel;resizable=0;html=1;align=center;verticalAlign=middle;" connectable="0" vertex="1" parent="rySYJTmvGV1bSroh9qv7-9">
          <mxGeometry relative="1" as="geometry" />
        </mxCell>
        <mxCell id="rySYJTmvGV1bSroh9qv7-11" value="Nguồn hạ áp 5V xuống 3.3V" style="rounded=0;whiteSpace=wrap;html=1;" vertex="1" parent="1">
          <mxGeometry x="640" y="40" width="100" height="60" as="geometry" />
        </mxCell>
        <mxCell id="rySYJTmvGV1bSroh9qv7-12" value="Adapter 5V" style="rounded=0;whiteSpace=wrap;html=1;" vertex="1" parent="1">
          <mxGeometry x="480" y="40" width="90" height="60" as="geometry" />
        </mxCell>
        <mxCell id="rySYJTmvGV1bSroh9qv7-13" value="" style="endArrow=classic;html=1;rounded=0;exitX=1;exitY=0.5;exitDx=0;exitDy=0;entryX=0;entryY=0.5;entryDx=0;entryDy=0;" edge="1" parent="1" source="rySYJTmvGV1bSroh9qv7-12" target="rySYJTmvGV1bSroh9qv7-11">
          <mxGeometry width="50" height="50" relative="1" as="geometry">
            <mxPoint x="970" y="130" as="sourcePoint" />
            <mxPoint x="1020" y="80" as="targetPoint" />
          </mxGeometry>
        </mxCell>
        <mxCell id="rySYJTmvGV1bSroh9qv7-14" value="ESP32" style="rounded=0;whiteSpace=wrap;html=1;direction=west;" vertex="1" parent="1">
          <mxGeometry x="640" y="160" width="100" height="60" as="geometry" />
        </mxCell>
        <mxCell id="rySYJTmvGV1bSroh9qv7-15" value="" style="endArrow=classic;html=1;rounded=0;exitX=1;exitY=0.5;exitDx=0;exitDy=0;entryX=0;entryY=0.5;entryDx=0;entryDy=0;" edge="1" parent="1" source="rySYJTmvGV1bSroh9qv7-11" target="rySYJTmvGV1bSroh9qv7-14">
          <mxGeometry relative="1" as="geometry">
            <mxPoint x="940" y="100" as="sourcePoint" />
            <mxPoint x="1040" y="100" as="targetPoint" />
            <Array as="points">
              <mxPoint x="790" y="70" />
              <mxPoint x="790" y="190" />
            </Array>
          </mxGeometry>
        </mxCell>
        <mxCell id="rySYJTmvGV1bSroh9qv7-16" value="Input 3.3V" style="edgeLabel;resizable=0;html=1;align=center;verticalAlign=middle;" connectable="0" vertex="1" parent="rySYJTmvGV1bSroh9qv7-15">
          <mxGeometry relative="1" as="geometry" />
        </mxCell>
        <mxCell id="rySYJTmvGV1bSroh9qv7-17" value="Button" style="rounded=0;whiteSpace=wrap;html=1;" vertex="1" parent="1">
          <mxGeometry x="480" y="160" width="90" height="60" as="geometry" />
        </mxCell>
        <mxCell id="rySYJTmvGV1bSroh9qv7-18" value="" style="endArrow=classic;html=1;rounded=0;exitX=1;exitY=0.5;exitDx=0;exitDy=0;entryX=1;entryY=0.5;entryDx=0;entryDy=0;" edge="1" parent="1" source="rySYJTmvGV1bSroh9qv7-17" target="rySYJTmvGV1bSroh9qv7-14">
          <mxGeometry relative="1" as="geometry">
            <mxPoint x="640" y="100" as="sourcePoint" />
            <mxPoint x="740" y="100" as="targetPoint" />
          </mxGeometry>
        </mxCell>
        <mxCell id="rySYJTmvGV1bSroh9qv7-20" value="Nguồn hạ áp 5V xuống 3.3V" style="rounded=0;whiteSpace=wrap;html=1;" vertex="1" parent="1">
          <mxGeometry x="200" y="270" width="100" height="60" as="geometry" />
        </mxCell>
        <mxCell id="rySYJTmvGV1bSroh9qv7-21" value="Adapter 5V" style="rounded=0;whiteSpace=wrap;html=1;" vertex="1" parent="1">
          <mxGeometry x="40" y="270" width="90" height="60" as="geometry" />
        </mxCell>
        <mxCell id="rySYJTmvGV1bSroh9qv7-22" value="" style="endArrow=classic;html=1;rounded=0;exitX=1;exitY=0.5;exitDx=0;exitDy=0;entryX=0;entryY=0.5;entryDx=0;entryDy=0;" edge="1" parent="1" source="rySYJTmvGV1bSroh9qv7-21" target="rySYJTmvGV1bSroh9qv7-20">
          <mxGeometry width="50" height="50" relative="1" as="geometry">
            <mxPoint x="530" y="360" as="sourcePoint" />
            <mxPoint x="580" y="310" as="targetPoint" />
          </mxGeometry>
        </mxCell>
        <mxCell id="rySYJTmvGV1bSroh9qv7-23" value="ESP32" style="rounded=0;whiteSpace=wrap;html=1;direction=west;" vertex="1" parent="1">
          <mxGeometry x="200" y="390" width="100" height="60" as="geometry" />
        </mxCell>
        <mxCell id="rySYJTmvGV1bSroh9qv7-24" value="" style="endArrow=classic;html=1;rounded=0;exitX=1;exitY=0.5;exitDx=0;exitDy=0;entryX=0;entryY=0.5;entryDx=0;entryDy=0;" edge="1" parent="1" source="rySYJTmvGV1bSroh9qv7-20" target="rySYJTmvGV1bSroh9qv7-23">
          <mxGeometry relative="1" as="geometry">
            <mxPoint x="500" y="330" as="sourcePoint" />
            <mxPoint x="600" y="330" as="targetPoint" />
            <Array as="points">
              <mxPoint x="350" y="300" />
              <mxPoint x="350" y="420" />
            </Array>
          </mxGeometry>
        </mxCell>
        <mxCell id="rySYJTmvGV1bSroh9qv7-25" value="Input 3.3V" style="edgeLabel;resizable=0;html=1;align=center;verticalAlign=middle;" connectable="0" vertex="1" parent="rySYJTmvGV1bSroh9qv7-24">
          <mxGeometry relative="1" as="geometry" />
        </mxCell>
        <mxCell id="rySYJTmvGV1bSroh9qv7-26" value="LED đơn" style="rounded=0;whiteSpace=wrap;html=1;" vertex="1" parent="1">
          <mxGeometry x="40" y="390" width="90" height="60" as="geometry" />
        </mxCell>
        <mxCell id="rySYJTmvGV1bSroh9qv7-29" value="" style="endArrow=classic;html=1;rounded=0;exitX=1;exitY=0.5;exitDx=0;exitDy=0;entryX=1;entryY=0.5;entryDx=0;entryDy=0;" edge="1" parent="1" source="rySYJTmvGV1bSroh9qv7-23" target="rySYJTmvGV1bSroh9qv7-26">
          <mxGeometry width="50" height="50" relative="1" as="geometry">
            <mxPoint x="540" y="320" as="sourcePoint" />
            <mxPoint x="590" y="270" as="targetPoint" />
          </mxGeometry>
        </mxCell>
      </root>
    </mxGraphModel>
  </diagram>
</mxfile>
